<?xml version="1.0" encoding="utf-8" ?><svg xmlns="http://www.w3.org/2000/svg" xmlns:xlink="http://www.w3.org/1999/xlink" width="1146" height="1130" viewBox="0 0 1146 1130"><path fill="#7C2A7D" d="M534.072 12.279C541.199 12.8353 548.472 12.4718 555.617 12.3936C563.563 12.3066 571.581 12.4221 579.517 12.0466C584.044 11.8325 588.962 9.92071 593.432 10.4387C597.122 10.8662 601.375 12.7868 604.607 14.5922C604.756 14.797 604.907 15.0001 605.054 15.2067C609.097 20.9008 616.849 42.0065 619.197 49.5326C621.377 56.5212 627.185 82.4247 630.82 86.4235C631.913 87.6252 634.675 88.0001 636.215 88.2859C649.339 90.7221 662.354 92.8735 675.355 95.9965C717.812 106.426 758.677 122.511 796.853 143.822C806.994 149.516 816.455 155.723 826.018 162.335C832.155 166.578 838.625 172.145 845.405 175.181C850.246 172.012 855.243 169.107 860.025 165.845C863.237 163.653 866.258 161.047 869.633 159.117C878.833 153.858 889.068 149.306 898.67 144.776C901.159 143.601 903.556 141.343 906.079 140.485C909.971 139.162 918.006 139.45 921.986 140.325C924.379 140.851 926.477 142.299 928.36 143.807C933.464 147.894 937.541 153.262 942.339 157.699C953.483 168.005 966.008 177.146 975.414 189.253C975.67 191.395 976.149 193.888 975.882 196.032C975.299 200.719 972.64 205.317 970.744 209.565C967.021 217.906 963.327 226.229 959.073 234.318C953.898 244.158 941.507 259.765 941.636 271.055C941.68 274.837 948.801 282.758 951.114 286.142C962.701 303.097 972.846 320.559 982.467 338.691C997.159 366.381 1010.52 403.372 1019.93 433.207C1022.98 442.894 1026.12 452.616 1028.34 462.536C1029.88 469.386 1030.59 477.374 1032.77 483.967C1033.32 485.637 1034.37 487.095 1035.79 488.136C1041.63 492.418 1060.4 495.245 1067.99 496.745C1084.23 499.952 1116.17 507.017 1128.59 517.094C1131.93 519.796 1134.5 523.588 1135.36 527.825C1136.86 535.133 1136.2 543.619 1136.24 551.061C1136.33 567.034 1136.73 583.38 1135.09 599.285C1117.05 609.116 1096.36 614.078 1076.84 620.071C1069.74 622.252 1062.85 625.023 1055.82 627.392C1049.8 629.418 1043.6 630.936 1037.81 633.569C1037.73 633.788 1037.65 634.006 1037.57 634.226C1035.66 639.719 1035.06 645.859 1034.08 651.582C1032.73 659.557 1031.25 667.426 1029.32 675.285C1019.5 715.336 1008.1 747.098 989.284 783.817C982.201 797.64 974.871 810.802 966.389 823.84C962.486 829.84 952.268 842.436 949.976 848.094C948.944 850.641 949.636 852.493 950.839 854.849C953.563 860.184 957.572 864.954 960.83 869.983C968.685 882.106 984.046 907.775 979.767 922.573C979.061 925.016 977.494 927.01 975.666 928.73C970.314 933.767 963.546 937.483 957.943 942.357C947.342 951.581 937.211 965.306 924.678 971.915C921.124 973.789 918.998 973.761 915.199 972.489C904.63 968.953 893.697 963.795 883.997 958.299C875.653 953.571 867.223 947.769 858.146 944.558C856.391 943.938 855.227 943.708 853.475 944.482C847.807 946.983 842.531 951.884 837.456 955.45C829.34 961.154 820.773 966.791 812.295 971.929C782.084 990.24 749.745 1003.03 716.363 1014.21C699.297 1019.92 681.332 1023.92 663.689 1027.41C657.448 1028.65 650.178 1028.75 644.188 1030.71C642.213 1031.36 641.256 1033.65 640.599 1035.46C636.93 1045.51 634.334 1063.59 631.79 1074.8C629.063 1086.82 620.392 1120.38 609.601 1125.81C605.397 1127.93 600.658 1127.96 596.075 1127.78C587.706 1127.65 579.331 1127.8 570.96 1127.71C562.095 1127.97 543.035 1129.73 535.446 1127.75C533.604 1127.27 531.767 1125.93 530.168 1124.92C527.922 1120.31 526.35 1115.48 524.524 1110.7C522.105 1104.37 519.448 1098.03 517.395 1091.58C512.615 1076.56 508.751 1061.61 503.216 1046.79C501.377 1041.87 500.03 1035.99 497.439 1031.48C496.635 1030.08 495.855 1029.87 494.375 1029.37C488.842 1027.49 482.475 1026.99 476.727 1025.86C465.628 1023.7 454.585 1021.25 443.611 1018.52C397.756 1006.71 353.982 987.939 313.817 962.856C309.559 960.161 283.116 942.781 282.256 942.593C281.288 942.382 278.897 943.789 278.03 944.235C255.419 955.878 238.183 971.132 214.033 982.062C209.817 983.97 205.51 986.221 201.017 987.355C196.385 988.523 190.807 988.666 186.239 987.281C182.514 986.151 179.101 983.805 176.192 981.249C172.49 977.994 170.82 973.478 167.522 969.966C158.181 960.016 144.399 953.5 138.087 940.862C134.823 934.326 134.383 928.238 136.73 921.338C139.359 913.61 143.115 905.093 146.896 897.859L165.428 863.244C168.503 857.446 172.956 850.743 174.579 844.391C175.005 842.726 175.153 841.134 174.342 839.543C172.377 835.691 169.387 832.025 166.972 828.422C162.803 822.199 158.849 815.832 154.711 809.589C152.33 805.995 149.574 802.536 147.382 798.833C127.165 764.945 111.429 728.576 100.568 690.637C98.7723 684.446 96.4744 678.455 95.1133 672.14C93.6007 665.121 91.1352 644.045 87.0537 639.204C85.5941 637.473 83.5161 636.797 81.4027 636.197C63.4871 631.107 18.655 625.353 9.19333 608.738C8.68083 607.821 8.19421 606.89 7.73402 605.947C8.09821 596.149 8.13968 585.921 7.55571 576.136C6.8231 563.861 3.63526 549.387 6.52321 537.312C7.02816 535.201 8.50506 533.244 10.0634 531.787C14.0444 528.064 20.2976 526.468 25.3403 524.59C32.0906 522.075 38.7837 519.254 45.6335 517.03C55.5586 513.808 79.1322 509.466 85.7647 502.568C89.161 464.669 100.365 424.882 114.293 389.571C116.965 382.8 120.104 376.28 122.977 369.601C127.306 359.541 131.447 348.576 137.071 339.179C147.373 322.103 158.068 305.266 169.147 288.683C172.231 284.137 178.657 279.834 179.87 274.297C180.157 272.988 179.076 271.025 178.47 269.903C175.894 265.14 172.515 260.731 169.609 256.158C160.198 241.345 150.614 226.99 143.661 210.802C142.285 207.599 140.29 204.034 139.744 200.583C138.84 194.862 140.047 189.032 141.688 183.569C145.908 180.483 158.008 168.175 161.566 164.001C163.807 161.372 165.716 158.469 167.972 155.855C170.922 152.435 174.374 149.435 177.396 146.065C180.543 142.556 184.006 137.124 188.097 134.815C190.417 133.505 195.533 134.302 198.197 134.426C204.944 138.593 212.452 140.44 219.512 143.925C230.865 149.53 241.678 156.049 252.955 161.707C263.3 166.897 274.151 171.159 284.428 176.45C293.82 170.725 302.954 164.565 312.348 158.871C322.801 152.535 333.572 146.817 344.21 140.822C348.449 138.433 352.39 135.554 356.707 133.293C366.587 128.118 376.724 124.281 387.033 120.111C413.521 109.399 437.348 100.888 465.357 94.7149C475.329 92.5169 489.656 88.4511 499.597 88.3005C504.067 71.2689 510.808 35.1337 520.274 21.855C522.108 19.2834 524.583 17.3805 527.288 15.8051C529.488 14.5238 531.791 13.4069 534.072 12.279Z"/><path fill="#944594" d="M570.96 1127.71C571.702 1127.07 572.181 1126.85 573.13 1126.62L573.588 1126.14L573.401 1126.08C577.699 1125.2 591.51 1124.07 594.977 1126.6C595.479 1126.96 595.712 1127.32 596.075 1127.78C587.706 1127.65 579.331 1127.8 570.96 1127.71Z"/><path fill="#246283" d="M549.731 126.608C788.446 120.339 987.026 308.851 993.223 547.616C999.42 786.381 810.887 984.944 572.168 991.072C333.55 997.196 135.128 808.722 128.934 570.058C122.739 331.393 311.116 132.875 549.731 126.608Z"/><path fill="#FDFAEE" d="M548.556 166.732C765.956 159.022 948.414 329.102 956.017 546.549C963.62 763.996 793.486 946.409 576.079 953.908C358.82 961.402 176.597 791.376 168.999 574.077C161.401 356.779 331.305 174.436 548.556 166.732Z"/><path fill="#246283" d="M548.71 202.123C745.414 194.541 911.014 347.898 918.575 544.642C926.135 741.386 772.794 907.004 576.088 914.547C379.411 922.089 213.854 768.742 206.294 572.026C198.735 375.309 352.034 209.704 548.71 202.123Z"/><path fill="#7C2A7D" d="M551.175 224.157C735.545 218.666 889.456 363.708 894.943 548.116C900.431 732.523 755.416 886.463 571.045 891.949C386.679 897.434 232.774 752.394 227.287 567.99C221.8 383.587 366.808 229.648 551.175 224.157Z"/><path fill="#FDFAEE" d="M553.231 242.334C727.363 238.095 871.976 375.817 876.273 549.983C880.57 724.148 742.924 868.837 568.795 873.192C394.583 877.55 249.84 739.797 245.541 565.549C241.243 391.301 379.017 246.575 553.231 242.334Z"/><path fill="#FDFAEE" d="M593.076 282.656C598.828 281.629 606.615 278.935 611.679 276.004C616.827 284.041 630.631 300.812 633.606 308.112C632.357 311.333 625.888 313.009 623.962 317.502C620.852 324.754 619.428 333.408 618.355 341.181C614.257 370.875 618.228 398.264 628.982 426.101C631.606 432.707 634.714 438.746 639.562 444.02C644.005 451.312 649.02 458.23 653.52 465.484C668.684 489.93 685.65 522.406 678.535 551.823C675.263 565.354 668.142 576.788 656.083 583.995C632.274 598.224 605.427 603.706 578.106 605.699C569.013 606.362 558.456 606.145 549.648 608.434C563.881 628.74 576.11 650.369 584.156 673.889C584.669 676.077 585.199 678.189 585.953 680.307C588.52 687.485 588.891 696.554 588.497 704.125C587.733 717.184 581.767 729.391 571.935 738.018C547.91 759.25 498.953 763.544 467.856 761.634C469.943 763.947 474.898 767.425 475.463 770.43L474.697 771.379C473.6 771.71 472.63 771.917 471.476 771.942C465.594 772.068 447.091 771.649 442.928 767.78C441.116 763.434 440.997 758.135 439.932 753.532C439.41 751.273 438.367 749.186 437.993 746.886C437.863 746.083 437.98 745.444 438.206 744.675C445.791 740.987 454.823 742.344 462.934 742.025C490.844 740.926 531.546 736.687 551.417 714.93C559.676 705.886 562.949 695.353 562.391 683.256C561.395 661.663 550.295 642.436 539.353 624.453C536.523 619.802 533.486 613.742 529.444 610.084C524.583 604.456 520.477 597.756 515.727 591.912C512.687 584.874 506.719 577.898 502.613 571.295C487.48 546.964 469.958 515.975 470.392 486.581C470.594 472.957 475.419 460.23 485.274 450.703C509.236 427.535 555.249 425.601 586.952 425.974C593.258 425.881 605.09 424.795 610.638 426.927L612.494 426.874C590.764 381.265 588.401 342.719 603.093 294.388C599.47 290.693 596.2 286.777 593.076 282.656Z"/><path fill="#246283" d="M586.952 425.974C593.258 425.881 605.09 424.795 610.638 426.927L612.494 426.874C615.629 432.307 618.898 437.7 621.713 443.306C586.849 442.977 528.458 443.097 502.235 468.535C494.116 476.412 489.796 486.92 489.706 498.225C489.496 524.417 510.249 555.769 525.777 576.189C528.672 579.996 531.491 584.401 534.793 587.826C538.893 594.862 543.89 602.617 549.648 608.434C563.881 628.74 576.11 650.369 584.156 673.889C584.669 676.077 585.199 678.189 585.953 680.307C588.52 687.485 588.891 696.554 588.497 704.125C587.733 717.184 581.767 729.391 571.935 738.018C547.91 759.25 498.953 763.544 467.856 761.634C469.943 763.947 474.898 767.425 475.463 770.43L474.697 771.379C473.6 771.71 472.63 771.917 471.476 771.942C465.594 772.068 447.091 771.649 442.928 767.78C441.116 763.434 440.997 758.135 439.932 753.532C439.41 751.273 438.367 749.186 437.993 746.886C437.863 746.083 437.98 745.444 438.206 744.675C445.791 740.987 454.823 742.344 462.934 742.025C490.844 740.926 531.546 736.687 551.417 714.93C559.676 705.886 562.949 695.353 562.391 683.256C561.395 661.663 550.295 642.436 539.353 624.453C536.523 619.802 533.486 613.742 529.444 610.084C524.583 604.456 520.477 597.756 515.727 591.912C512.687 584.874 506.719 577.898 502.613 571.295C487.48 546.964 469.958 515.975 470.392 486.581C470.594 472.957 475.419 460.23 485.274 450.703C509.236 427.535 555.249 425.601 586.952 425.974Z"/><path fill="#3D7892" d="M586.952 425.974C593.258 425.881 605.09 424.795 610.638 426.927C607.089 426.649 605.041 429.066 601.681 429.851C599.636 430.328 597.291 430.203 595.198 430.189C594.673 429.464 594.147 428.744 593.577 428.053C591.88 425.997 589.407 426.178 586.952 425.974Z"/><path fill="#3D7892" d="M584.156 673.889C584.669 676.077 585.199 678.189 585.953 680.307C584.24 680.424 583.316 680.685 581.752 679.926C581.412 677.837 583.098 675.675 584.156 673.889Z"/><path fill="#7C2A7D" d="M593.076 282.656C598.828 281.629 606.615 278.935 611.679 276.004C616.827 284.041 630.631 300.812 633.606 308.112C632.357 311.333 625.888 313.009 623.962 317.502C620.852 324.754 619.428 333.408 618.355 341.181C614.257 370.875 618.228 398.264 628.982 426.101C631.606 432.707 634.714 438.746 639.562 444.02C644.005 451.312 649.02 458.23 653.52 465.484C668.684 489.93 685.65 522.406 678.535 551.823C675.263 565.354 668.142 576.788 656.083 583.995C632.274 598.224 605.427 603.706 578.106 605.699C569.013 606.362 558.456 606.145 549.648 608.434C543.89 602.617 538.893 594.862 534.793 587.826C541.814 587.466 548.916 587.76 555.952 587.555C583.216 586.759 615.752 584.136 638.958 568.436C648.652 561.877 656.087 552.161 658.308 540.504C659.824 532.553 658.908 524.35 657.412 516.47C652.169 488.859 637.383 466.076 621.713 443.306C618.898 437.7 615.629 432.307 612.494 426.874C590.764 381.265 588.401 342.719 603.093 294.388C599.47 290.693 596.2 286.777 593.076 282.656Z"/><path fill="#7C2A7D" d="M559.764 457.862C560.878 457.781 561.998 457.815 563.106 457.963C564.462 458.145 565.456 458.625 566.53 459.469C569.476 461.789 571.856 465.209 574.361 468.018C577.806 471.88 581.812 475.441 585.969 478.521C593.353 483.99 602.118 488.557 610.892 491.302C617.123 493.252 628.977 492.56 632.971 498.419C634.245 500.287 634.689 502.446 634.118 504.648C633.248 508.012 631.225 509.747 628.407 511.552C625.466 511.689 622.638 511.403 619.744 510.907C593.128 506.349 569.699 492.307 554.04 470.205C553.962 468.012 553.663 465.319 554.186 463.193C554.907 460.264 557.35 459.184 559.764 457.862Z"/><path fill="#7C2A7D" d="M551.815 506.464C553.152 506.405 554.622 506.404 555.938 506.654C560.864 507.59 565.778 515.805 569.698 519.115C577.426 525.639 594.659 524.952 598.672 531.357C599.824 533.195 600.1 535.508 599.582 537.601C598.844 540.586 596.628 542.252 594.068 543.651C590.736 543.999 587.082 543.64 583.787 543.084C570.653 540.868 555.717 532.989 548.137 521.73C546.513 519.318 545.433 516.567 546.05 513.633C546.789 510.117 548.995 508.424 551.815 506.464Z"/><path fill="#7C2A7D" d="M381.589 714.069C372.603 696.347 362.316 667.296 364.392 647.274C366.096 630.833 371.068 617.996 384.266 607.399C415.883 582.015 477.805 587.592 515.727 591.912C520.477 597.756 524.583 604.456 529.444 610.084C520.194 610.068 510.08 607.223 500.884 605.768C496.655 605.51 492.436 605.107 488.235 604.559C462.661 603.125 431.832 600.161 408.552 612.806C399.189 617.892 392.99 625.713 390.105 635.979C388.128 643.014 388.502 649.341 389.367 656.504C392.74 684.404 407.098 708.202 420.483 732.327C414.271 732.528 408.07 733.273 401.865 733.661L363.323 735.923C359.815 728.718 356.088 721.604 353.193 714.123C362.478 713.334 372.254 714.037 381.589 714.069Z"/><path fill="#944594" d="M488.235 604.559C488.439 604.549 488.643 604.542 488.847 604.528C492.414 604.272 496.32 601.027 499.491 602.548C499.98 603.613 500.496 604.661 500.884 605.768C496.655 605.51 492.436 605.107 488.235 604.559Z"/><path fill="#246283" d="M777.466 377.054C785.775 384.212 792.109 393.28 799.958 400.877C795.896 406.894 791.212 414.051 785.725 418.794C783.95 415.758 782.11 412.761 780.206 409.804C751.179 434.112 714.502 447.386 676.644 447.284C667.225 447.295 657.453 446.112 648.074 445.219C645.221 444.945 642.38 444.545 639.562 444.02C634.714 438.746 631.606 432.707 628.982 426.101C677.386 435.16 722.828 425.71 763.519 397.851C765.611 396.418 767.655 394.878 769.868 393.637C768.496 391.342 767.138 389.041 765.673 386.803C769.492 383.408 773.743 380.54 777.466 377.054Z"/><path fill="#246283" d="M443.933 622.021C446.207 621.821 448.643 621.487 450.826 622.348C453.999 623.599 461.26 631.878 464.591 634.661C471.05 640.058 478.235 645.172 485.88 648.746C494.937 652.98 505.847 657.059 515.83 658.313C520.705 658.926 525.774 658.747 530.598 659.66C533.293 660.17 535.815 661.391 537.268 663.828C538.43 665.776 538.447 667.878 537.851 670.021C536.893 673.465 535.039 674.86 532.024 676.552C520.544 677.232 507.262 674.532 496.382 671.186C478.749 665.766 462.546 656.484 448.951 644.014C445.491 640.885 441.53 637.361 439.436 633.12C438.49 631.202 437.937 629.048 438.716 626.968C439.634 624.517 441.628 623.032 443.933 622.021Z"/><path fill="#246283" d="M648.344 324.194C650.559 324.003 653.142 323.603 655.332 324.057C656.601 324.321 657.392 324.885 658.312 325.751C661.459 328.712 664.07 332.631 666.831 335.968C670.894 340.877 675.608 345.692 680.457 349.83C687.164 355.553 695.687 360.104 703.77 363.534C708.911 365.715 724.809 369.349 727.322 373.525C728.512 375.501 728.552 377.834 727.987 380.022C727.224 382.971 725.85 384.413 723.281 385.925C722.513 386.03 721.775 386.125 720.998 386.123C701.544 386.059 673.1 367.536 659.768 354.027C654.619 348.81 643.964 338.63 644.362 330.647C644.505 327.794 646.364 326.013 648.344 324.194Z"/><path fill="#246283" d="M448.875 666.035L449.101 666.03C450.268 665.996 451.6 665.889 452.72 666.266C458.537 668.224 465.343 680.648 472.444 684.692C481.369 689.775 490.487 689.493 500.014 692.001C502.56 692.671 505.052 694.103 506.299 696.51C507.337 698.515 507.376 701.02 506.615 703.127C505.622 705.872 503.292 707.034 500.807 708.2C494.773 708.275 488.746 707.738 482.821 706.597C468.172 703.643 453.166 694.749 445.031 681.925C443.189 679.021 441.632 675.669 442.615 672.171C443.486 669.07 446.222 667.456 448.875 666.035Z"/><path fill="#246283" d="M644.519 370.026C646.012 369.969 647.747 369.742 649.199 370.126C654.105 371.422 659.064 378.811 663.118 381.979C670.245 387.549 686.029 389.481 689.009 394.494C690.29 396.65 690.319 399.458 689.595 401.811C688.639 404.919 686.101 406.028 683.41 407.395C680.239 407.556 676.775 406.434 673.728 405.612C662.169 402.497 645.495 393.198 639.636 382.375C638.495 380.267 637.852 377.914 638.727 375.58C639.744 372.872 642.046 371.276 644.519 370.026Z"/></svg>