<svg xml:space="preserve" style="max-height: 500px" viewBox="41.8136148 51.56167552631578 528.768 106.3842105263158" y="0px" x="0px" id="Layer_1" version="1.1" xmlns:xlink="http://www.w3.org/1999/xlink" xmlns="http://www.w3.org/2000/svg" width="528.768" height="106.3842105263158"> <style type="text/css"> .st0{fill:#006495;} .st1{fill:#7A2981;} </style> <g> <g> <g> <path d="M347.7,127.1h-0.5c-0.5,0-0.9,0-1.5,0l-0.1-0.1c0.6-2.3,2.4-10.4,2.8-12.5l0.1-0.1h0.5c0.5,0,0.9,0,1.5,0 l0.1,0.1c-0.6,2.4-2,8.3-2.8,12.5L347.7,127.1z" class="st0"/> <path d="M358,127.1h-3.7c-1.2,0-2,0-3.2,0l-0.3,0l-0.1-0.1c1.2-4.8,2.3-9.9,2.8-12.5l0.1-0.1h0.2c0.5,0,1.4,0,2.2,0 h2.1c1,0,2,0,2.6,0l0.1,0.1c-0.2,0.5-0.3,0.8-0.4,1.3l-0.1,0.1c-1.1,0-2.6-0.1-4.1-0.1c-0.3,0-0.9,0-0.9,0l-0.9,3.9 c3.6,0,4.1-0.1,4.9-0.1l0.1,0.1c-0.1,0.5-0.2,0.8-0.4,1.3l-0.2,0.1c-0.6,0-3.4,0-4.8,0c-0.3,1.3-0.6,2.5-1,4.4 c0.8,0,4.9-0.1,5.4-0.1l0.1,0.1c-0.2,0.5-0.3,0.9-0.4,1.4L358,127.1z" class="st0"/> <path d="M367.5,127.1h-3.7c-1.2,0-2,0-3.2,0l-0.3,0l-0.1-0.1c1.2-4.8,2.3-9.9,2.8-12.5l0.1-0.1h0.2 c0.5,0,1.4,0,2.2,0h2.1c1,0,2,0,2.6,0l0.1,0.1c-0.2,0.5-0.3,0.8-0.4,1.3l-0.1,0.1c-1.1,0-2.6-0.1-4.1-0.1c-0.3,0-0.9,0-0.9,0 l-0.9,3.9c3.6,0,4.1-0.1,4.9-0.1l0.1,0.1c-0.1,0.5-0.2,0.8-0.4,1.3l-0.2,0.1c-0.6,0-3.4,0-4.8,0c-0.3,1.3-0.6,2.5-1,4.4 c0.8,0,4.9-0.1,5.4-0.1l0.1,0.1c-0.2,0.5-0.3,0.9-0.4,1.4L367.5,127.1z" class="st0"/> <path d="M377.1,127.1h-3.7c-1.2,0-2,0-3.2,0l-0.3,0l-0.1-0.1c1.2-4.8,2.3-9.9,2.8-12.5l0.1-0.1h0.2 c0.5,0,1.4,0,2.2,0h2.1c1,0,2,0,2.6,0l0.1,0.1c-0.2,0.5-0.3,0.8-0.4,1.3l-0.1,0.1c-1.1,0-2.6-0.1-4.1-0.1c-0.3,0-0.9,0-0.9,0 l-0.9,3.9c3.6,0,4.1-0.1,4.9-0.1l0.1,0.1c-0.1,0.5-0.2,0.8-0.4,1.3l-0.2,0.1c-0.6,0-3.4,0-4.8,0c-0.3,1.3-0.6,2.5-1,4.4 c0.8,0,4.9-0.1,5.4-0.1l0.1,0.1c-0.2,0.5-0.3,0.9-0.4,1.4L377.1,127.1z" class="st0"/> <path d="M391.3,127.1h-3.7c-1.2,0-2,0-3.2,0l-0.3,0L384,127c1.2-4.8,2.3-9.9,2.8-12.5l0.1-0.1h0.2c0.5,0,1.4,0,2.2,0 h2.1c1,0,2,0,2.6,0l0.1,0.1c-0.2,0.5-0.3,0.8-0.4,1.3l-0.1,0.1c-1.1,0-2.6-0.1-4.1-0.1c-0.3,0-0.9,0-0.9,0l-0.9,3.9 c3.6,0,4.1-0.1,4.9-0.1l0.1,0.1c-0.1,0.5-0.2,0.8-0.4,1.3l-0.2,0.1c-0.6,0-3.4,0-4.8,0c-0.3,1.3-0.6,2.5-1,4.4 c0.8,0,4.9-0.1,5.4-0.1l0.1,0.1c-0.2,0.5-0.3,0.9-0.4,1.4L391.3,127.1z" class="st0"/> <path d="M401,127.1c-0.7,0-1.2,0-1.8,0.1l-0.1-0.1c0.3-1.2,0.5-2,0.8-3.2l0.4-2.1c0.1-0.3,0.2-0.8,0.2-1.3 c0-1.3-1.2-1.4-1.5-1.4c-1.1,0-2,0.6-2.4,1c-0.5,2.3-1,4.6-1.5,7l-0.1,0.1c-0.7,0-1.2,0-1.8,0.1l-0.1-0.1c0.6-2.4,1.7-7.4,1.9-9 l0.1-0.1c0.7-0.1,1.2-0.2,1.9-0.3l0.1,0.1l-0.3,0.9c1.3-1,2.6-1.1,3-1.1c0.5,0,2.6,0.1,2.6,2.4c0,0.6-0.2,1.8-0.6,3.5l-0.3,1.3 c-0.2,0.9-0.3,1.5-0.4,2.3L401,127.1z" class="st0"/> <path d="M413.5,117.9c-0.5,2-1,3.9-1.4,5.9l-0.5,2.4c-0.6,3-1.2,5.5-5.1,5.5c-1.1,0-2.7-0.3-3.7-1.4v-0.1 c0.3-0.4,0.5-0.7,0.7-1.2h0.1c0.5,0.6,1.4,1.3,2.7,1.3c2.7,0,2.9-2.5,3.1-3.1l0.2-0.7c-1.2,0.8-2.3,0.8-2.6,0.8 c-2.1,0-3.2-1.6-3.2-3.5c0-0.5,0.1-2,1-3.5c1.7-2.6,4.4-2.6,6.5-2.6c0.9,0,2.2,0,2.2,0L413.5,117.9z M411.3,119.2 c0,0-0.5,0-0.7,0c-1.6,0-3.4,0.3-4.4,2.4c-0.4,0.9-0.5,1.7-0.5,2.1c0,1.9,1.2,2.3,2.1,2.3c1,0,1.7-0.5,2.1-0.9L411.3,119.2z" class="st0"/> <path d="M415.6,127.1c-0.7,0-1.2,0-1.9,0.1l-0.1-0.1c0.6-2.1,1.9-8,1.9-9l0.1-0.1c0.7-0.1,1.2-0.2,2-0.3l0.1,0.1 c-0.1,0-1.6,6.8-2,9.3L415.6,127.1z M418.2,115.2c-0.7,0.1-1.2,0.1-1.9,0.3l-0.1-0.1c0.1-0.6,0.3-1,0.4-1.7l0.2-0.1 c0.7-0.1,1.2-0.1,1.9-0.3l0.1,0.1c-0.2,0.6-0.3,1-0.4,1.7L418.2,115.2z" class="st0"/> <path d="M425.9,127.1c-0.7,0-1.2,0-1.8,0.1L424,127c0.3-1.2,0.5-2,0.8-3.2l0.4-2.1c0.1-0.3,0.2-0.8,0.2-1.3 c0-1.3-1.2-1.4-1.5-1.4c-1.1,0-2,0.6-2.4,1c-0.5,2.3-1,4.6-1.5,7l-0.1,0.1c-0.7,0-1.2,0-1.8,0.1L418,127c0.6-2.4,1.7-7.4,1.9-9 l0.1-0.1c0.7-0.1,1.2-0.2,1.9-0.3l0.1,0.1l-0.3,0.9c1.3-1,2.6-1.1,3-1.1c0.5,0,2.6,0.1,2.6,2.4c0,0.6-0.2,1.8-0.6,3.5l-0.3,1.3 c-0.2,0.9-0.3,1.5-0.5,2.3L425.9,127.1z" class="st0"/> <path d="M435.9,126.6c-0.6,0.4-1.5,0.7-2.9,0.7c-3.1,0-4.2-1.8-4.2-3.9c0-3.2,1.9-5.9,5-5.9c2.1,0,3.6,1,3.6,3.4 c0,0.7-0.2,1.4-0.2,1.6l-0.1,0.1c-0.9,0-2.6,0-4.2,0c-0.8,0-1.4,0-2.2,0c0,0.1-0.1,0.4-0.1,0.8c0,2.4,2.1,2.4,2.7,2.4 c1.5,0,2.3-0.6,3-1.1l0.1,0.1c-0.2,0.6-0.3,1-0.5,1.6L435.9,126.6z M435.6,121.4c0.1-0.4,0.1-0.6,0.1-0.8c0-1.6-1.4-1.8-1.9-1.8 c-2.1,0-2.8,1.9-3,2.6C430.9,121.4,434.5,121.4,435.6,121.4z" class="st0"/> <path d="M445.4,126.6c-0.6,0.4-1.5,0.7-2.9,0.7c-3.1,0-4.2-1.8-4.2-3.9c0-3.2,1.9-5.9,5-5.9c2.1,0,3.6,1,3.6,3.4 c0,0.7-0.2,1.4-0.2,1.6l-0.1,0.1c-0.9,0-2.6,0-4.2,0c-0.8,0-1.4,0-2.2,0c0,0.1-0.1,0.4-0.1,0.8c0,2.4,2.1,2.4,2.7,2.4 c1.5,0,2.3-0.6,3-1.1l0.1,0.1c-0.2,0.6-0.3,1-0.5,1.6L445.4,126.6z M445.2,121.4c0.1-0.4,0.1-0.6,0.1-0.8c0-1.6-1.4-1.8-1.9-1.8 c-2.1,0-2.8,1.9-3,2.6C440.5,121.4,444,121.4,445.2,121.4z" class="st0"/> <path d="M449.3,127.1c-0.7,0-1.2,0-1.9,0l-0.1-0.1c0.8-2.8,1.8-7.5,2-9l0.1-0.1c0.7-0.1,1.2-0.2,1.9-0.3l0.1,0.1 c-0.1,0.5-0.3,1-0.4,1.6c0.3-0.5,1.1-1.8,2.3-1.8c0.4,0,0.6,0.1,0.8,0.2l0.1,0.2c-0.3,0.6-0.5,1.1-0.7,1.8l-0.2,0.1 c-0.1-0.1-0.4-0.3-0.8-0.3c-0.5,0-1.6,0.3-2.2,2.6c-0.2,0.7-0.9,3.8-1,4.9L449.3,127.1z" class="st0"/> <path d="M455.5,127.1c-0.7,0-1.2,0-1.9,0.1l-0.1-0.1c0.6-2.1,1.9-8,1.9-9l0.1-0.1c0.7-0.1,1.2-0.2,2-0.3l0.1,0.1 c-0.1,0-1.6,6.8-2,9.3L455.5,127.1z M458.1,115.2c-0.7,0.1-1.2,0.1-1.9,0.3l-0.1-0.1c0.1-0.6,0.3-1,0.4-1.7l0.2-0.1 c0.7-0.1,1.2-0.1,1.9-0.3l0.1,0.1c-0.2,0.6-0.3,1-0.4,1.7L458.1,115.2z" class="st0"/> <path d="M465.8,127.1c-0.7,0-1.2,0-1.8,0.1l-0.1-0.1c0.3-1.2,0.5-2,0.8-3.2l0.4-2.1c0.1-0.3,0.2-0.8,0.2-1.3 c0-1.3-1.2-1.4-1.5-1.4c-1.1,0-2,0.6-2.4,1c-0.5,2.3-1,4.6-1.5,7l-0.1,0.1c-0.7,0-1.2,0-1.8,0.1l-0.1-0.1c0.6-2.4,1.7-7.4,1.9-9 l0.1-0.1c0.7-0.1,1.2-0.2,1.9-0.3l0.1,0.1l-0.3,0.9c1.3-1,2.6-1.1,3-1.1c0.5,0,2.6,0.1,2.6,2.4c0,0.6-0.2,1.8-0.6,3.5l-0.3,1.3 c-0.2,0.9-0.3,1.5-0.4,2.3L465.8,127.1z" class="st0"/> <path d="M478.3,117.9c-0.5,2-1,3.9-1.4,5.9l-0.5,2.4c-0.6,3-1.2,5.5-5.1,5.5c-1.1,0-2.7-0.3-3.7-1.4v-0.1 c0.3-0.4,0.5-0.7,0.7-1.2h0.1c0.5,0.6,1.4,1.3,2.7,1.3c2.7,0,2.9-2.5,3.1-3.1l0.2-0.7c-1.2,0.8-2.3,0.8-2.6,0.8 c-2.1,0-3.2-1.6-3.2-3.5c0-0.5,0.1-2,1-3.5c1.7-2.6,4.4-2.6,6.5-2.6c0.9,0,2.2,0,2.2,0L478.3,117.9z M476,119.2c0,0-0.5,0-0.7,0 c-1.6,0-3.4,0.3-4.4,2.4c-0.4,0.9-0.5,1.7-0.5,2.1c0,1.9,1.2,2.3,2.1,2.3c1,0,1.7-0.5,2.1-0.9L476,119.2z" class="st0"/> <path d="M485.5,127.1c-0.7,0-1.2,0-1.9,0.1l-0.1-0.1c0.6-2.1,1.9-8,1.9-9l0.1-0.1c0.7-0.1,1.2-0.2,2-0.3l0.1,0.1 c-0.1,0-1.6,6.8-2,9.3L485.5,127.1z M488,115.2c-0.7,0.1-1.2,0.1-1.9,0.3l-0.1-0.1c0.1-0.6,0.3-1,0.4-1.7l0.2-0.1 c0.7-0.1,1.2-0.1,1.9-0.3l0.1,0.1c-0.2,0.6-0.3,1-0.4,1.7L488,115.2z" class="st0"/> <path d="M495.8,127.1c-0.7,0-1.2,0-1.8,0.1l-0.1-0.1c0.3-1.2,0.5-2,0.8-3.2l0.4-2.1c0.1-0.3,0.2-0.8,0.2-1.3 c0-1.3-1.2-1.4-1.5-1.4c-1.1,0-2,0.6-2.4,1c-0.5,2.3-1,4.6-1.5,7l-0.1,0.1c-0.7,0-1.2,0-1.8,0.1l-0.1-0.1c0.6-2.4,1.7-7.4,1.9-9 l0.1-0.1c0.7-0.1,1.2-0.2,1.9-0.3l0.1,0.1l-0.3,0.9c1.3-1,2.6-1.1,3-1.1c0.5,0,2.6,0.1,2.6,2.4c0,0.6-0.2,1.8-0.6,3.5l-0.3,1.3 c-0.2,0.9-0.3,1.5-0.4,2.3L495.8,127.1z" class="st0"/> </g> <g> <path d="M360.2,151c-1,0-1.9,0-2.8,0.1l-0.1-0.1c0.5-2.6,1.8-8.9,2.1-10.3c-4.1,8-4.6,9.1-5.2,10.3L354,151 c-0.8,0-1.6,0-2.4,0l-0.1-0.1c0-0.8-0.1-1.6-0.6-10.3c-0.8,3.1-2.5,9.9-2.6,10.2l-0.1,0.1c-0.8,0-1.7,0-2.5,0.1l-0.1-0.1 c0.4-1.4,2.3-8.2,3.4-12.5l0.1-0.1c1.4,0,2.7,0,4.1-0.1l0.1,0.1c0,0.8,0.4,7.2,0.5,8.7c3.3-6.7,3.8-7.6,4.3-8.6l0.1-0.1 c1.4,0,2.7,0,4.1-0.1l0.1,0.1c0,0.1-1.6,9.1-2.1,12.5L360.2,151z" class="st1"/> <path d="M370.2,150.5c-0.7,0.3-1.6,0.6-3.1,0.6c-3.7,0-4.5-2.1-4.5-4c0-2.6,1.5-6,5.5-6c2,0,3.6,1,3.6,3.2 c0,1-0.2,1.9-0.3,2.2l-0.1,0.1h-0.3c-1.9,0-3.5,0-5.4,0.1c0,0.3,0,0.4,0,0.5c0,1.4,1.1,1.7,2.1,1.7c0.4,0,1.8-0.1,3.1-1l0.2,0.1 c-0.3,0.8-0.4,1.4-0.6,2.3L370.2,150.5z M369,145c0.1-0.4,0.1-0.6,0.1-0.8c0-1.1-0.8-1.2-1.2-1.2c-0.8,0-1.6,0.5-2.1,2L369,145z" class="st1"/> <path d="M383.2,139.9l-1.1,4.5c-0.5,2.2-1,4.3-1.4,6.5l-0.1,0.1c-0.9,0-1.8,0-2.7,0.1l-0.1-0.1l0.1-0.8 c-0.4,0.3-1.3,1-2.6,1c-1.2,0-3-0.7-3-3.5c0-3,1.7-6.3,6.2-6.3c0.3,0,1,0,1.3,0l0.4-1.9c0.2-0.7,0.3-1.5,0.4-2.2l0.1-0.1 c1-0.2,2-0.3,3-0.5l0.1,0.1C383.7,137.7,383.5,138.8,383.2,139.9z M378.8,143.4c-2.1,0-3.2,1.9-3.2,3.9c0,1.4,0.7,1.8,1.4,1.8 c0.7,0,1.2-0.4,1.4-0.6l1.1-5.1H378.8z" class="st1"/> <path d="M386.8,146.4l-0.3,1.3c-0.2,1-0.4,2.1-0.6,3.2l-0.1,0.1c-1,0-2.1,0-3.1,0.1l-0.1-0.1 c0.4-1.6,0.8-3.2,1.2-4.8l0.2-0.9c0.3-1.1,0.5-2.3,0.6-3.4l0.1-0.1c1.1-0.1,2.1-0.3,3.2-0.5l0.1,0.1 C387.5,143,387.1,144.7,386.8,146.4z M388.9,137.1c-0.2,0.8-0.4,1.6-0.6,2.4l-0.1,0.1c-1,0.1-1.9,0.3-2.9,0.4l-0.1-0.1 c0.2-0.8,0.4-1.6,0.5-2.4l0.2-0.1c1-0.1,2.1-0.3,3-0.4L388.9,137.1z" class="st1"/> <path d="M394.8,150.7c-0.5,0.2-1.2,0.5-2.3,0.5c-2.7,0-4.3-1.7-4.3-4.2c0-2.5,1.4-4.2,2.7-5c1.3-0.8,2.7-0.8,3-0.8 c0.8,0,1.9,0.2,2.7,0.7l0,0.1c-0.3,0.7-0.4,1.3-0.6,2.1l-0.2,0c-0.6-0.9-1.6-0.9-1.7-0.9c-2,0-2.8,2.1-2.8,3.4 c0,1.2,0.6,2.3,2.1,2.3c1,0,1.5-0.4,1.9-0.7l0.2,0.1c-0.2,0.8-0.4,1.4-0.6,2.2L394.8,150.7z" class="st1"/> <path d="M400.2,146.4l-0.3,1.3c-0.2,1-0.4,2.1-0.6,3.2l-0.1,0.1c-1,0-2.1,0-3.1,0.1l-0.1-0.1 c0.4-1.6,0.8-3.2,1.2-4.8l0.2-0.9c0.3-1.1,0.5-2.3,0.6-3.4l0.1-0.1c1.1-0.1,2.1-0.3,3.2-0.5l0.1,0.1 C401,143,400.6,144.7,400.2,146.4z M402.3,137.1c-0.2,0.8-0.4,1.6-0.6,2.4l-0.1,0.1c-1,0.1-1.9,0.3-2.9,0.4l-0.1-0.1 c0.2-0.8,0.4-1.6,0.5-2.4l0.2-0.1c1-0.1,2.1-0.3,3-0.4L402.3,137.1z" class="st1"/> <path d="M406.3,141.3l-0.2,1c0.3-0.3,1.4-1.1,2.8-1.1c0.7,0,2.4,0.3,2.4,2.4c0,1.1-1.3,6.4-1.4,7.3l-0.1,0.1 c-1,0-2,0-2.9,0.1l-0.1-0.1c0.4-1.9,1.3-5.4,1.3-6.4c0-0.6-0.4-1-1-1c-0.5,0-1,0.3-1.4,0.6c-0.5,2.3-1.2,5.5-1.4,6.8l-0.1,0.1 c-1,0-2,0-3,0.1l-0.1-0.1c0.3-1.4,1.8-7.2,1.9-9.1l0.1-0.1c1.1-0.1,2-0.3,3-0.5L406.3,141.3z" class="st1"/> <path d="M420,150.5c-0.7,0.3-1.6,0.6-3.1,0.6c-3.7,0-4.5-2.1-4.5-4c0-2.6,1.5-6,5.5-6c2,0,3.6,1,3.6,3.2 c0,1-0.2,1.9-0.3,2.2l-0.1,0.1h-0.3c-1.9,0-3.5,0-5.4,0.1c0,0.3,0,0.4,0,0.5c0,1.4,1.1,1.7,2.1,1.7c0.4,0,1.8-0.1,3.1-1l0.2,0.1 c-0.3,0.8-0.4,1.4-0.6,2.3L420,150.5z M418.8,145c0.1-0.4,0.1-0.6,0.1-0.8c0-1.1-0.8-1.2-1.2-1.2c-0.8,0-1.6,0.5-2.1,2L418.8,145 z" class="st1"/> <path d="M437.5,146.4c-0.5,0.7-1.3,1.6-2.1,2.3c0.5,0.7,0.9,1.4,1.4,2.1l-0.1,0.2c-0.5,0-1.8,0-2.1,0l-0.1-0.1 c-0.2-0.4-0.4-0.7-0.6-1.1c-1.1,0.8-2.3,1.3-3.7,1.3c-2,0-3.4-1.2-3.4-3c0-1.7,1.1-2.8,3.7-4c-0.6-1.1-0.8-1.7-0.8-2.6 c0-1.8,1.4-3.1,3.5-3.1c1.9,0,3.1,1,3.1,2.6c0,0.8-0.3,1.5-1,2.1c-0.6,0.5-1,0.8-2.4,1.5l1.7,2.8c0.8-0.8,1.4-1.5,1.9-2.5l0.1,0 c0.6,1,0.4,0.7,0.8,1.3V146.4z M431.2,145.4c-1.7,0.8-2.5,1.5-2.5,2.6c0,1,0.8,1.6,1.9,1.6c0.9,0,1.7-0.4,2.6-1.1 C432.5,147.5,431.8,146.5,431.2,145.4z M434.6,141.1c0-0.8-0.6-1.3-1.5-1.3c-0.9,0-1.7,0.7-1.7,1.5c0,0.7,0.3,1.4,0.7,2.1 C433.9,142.4,434.6,142,434.6,141.1z" class="st0"/> <path d="M445.8,138.3c1.1,0,3.2-0.1,4.5-0.1c1.9,0,3,0.2,3.8,1c0.3,0.4,0.6,0.9,0.6,1.7c0,2.4-2.3,3.2-2.7,3.2 c1.9,0.4,2.1,1.9,2.1,2.5c0,0.8-0.3,1.8-0.9,2.6c-1.2,1.4-3,1.7-5.8,1.7c-0.7,0-1.4,0-1.8,0c-1.1,0-2.1,0-2.6,0l-0.1-0.1 c0.3-1,0.4-1.7,0.6-2.6l0.6-2.4c1.3-5.4,1.4-6.4,1.6-7.5L445.8,138.3z M447.2,149c1.5,0,2.5-0.1,3.1-0.9c0.2-0.2,0.4-0.6,0.4-1.2 c0-1.4-1.4-1.4-2.2-1.4h-1.2c-0.6,2.5-0.7,2.9-0.8,3.5C446.5,149,446.8,149,447.2,149z M448.7,143.4c1,0,2.8-0.3,2.8-2 c0-1-0.8-1.3-1.9-1.3c-0.4,0-1.1,0-1.1,0c-0.1,0.5-0.2,0.8-0.8,3.3H448.7z" class="st1"/> <path d="M458.8,146.4l-0.3,1.3c-0.2,1-0.4,2.1-0.6,3.2l-0.1,0.1c-1,0-2.1,0-3.1,0.1l-0.1-0.1 c0.4-1.6,0.8-3.2,1.2-4.8l0.2-0.9c0.3-1.1,0.5-2.3,0.6-3.4l0.1-0.1c1.1-0.1,2.1-0.3,3.2-0.5l0.1,0.1 C459.6,143,459.2,144.7,458.8,146.4z M460.9,137.1c-0.2,0.8-0.4,1.6-0.6,2.4l-0.1,0.1c-1,0.1-1.9,0.3-2.9,0.4l-0.1-0.1 c0.2-0.8,0.4-1.6,0.5-2.4l0.2-0.1c1-0.1,2.1-0.3,3-0.4L460.9,137.1z" class="st1"/> <path d="M466,141.2c1.1,0,4.1,0.5,4.1,3.9c0,3.6-2,6.1-5.5,6.1c-3.6,0-4.3-2.2-4.3-3.9 C460.3,146.1,460.8,141.2,466,141.2z M464.6,149.3c1.9,0,2.5-3.3,2.5-4.6c0-0.6-0.2-1.6-1.4-1.6c-2.2,0-2.5,4-2.5,4.6 C463.3,148.9,463.9,149.3,464.6,149.3z" class="st1"/> <path d="M473.5,151c-1,0-2,0-3,0.1l-0.1-0.1c1.2-5.1,2.6-10.8,2.8-13.6l0.1-0.1c1-0.2,2.1-0.3,3.2-0.5l0.1,0.1 c-1.1,4.8-2.5,10.8-3,14.1L473.5,151z" class="st1"/> <path d="M481.7,141.2c1.1,0,4.1,0.5,4.1,3.9c0,3.6-2,6.1-5.5,6.1c-3.6,0-4.3-2.2-4.3-3.9 C476,146.1,476.5,141.2,481.7,141.2z M480.4,149.3c1.9,0,2.5-3.3,2.5-4.6c0-0.6-0.2-1.6-1.4-1.6c-2.2,0-2.5,4-2.5,4.6 C479,148.9,479.7,149.3,480.4,149.3z" class="st1"/> <path d="M497.1,141.5c-0.5,2.1-0.9,3.5-1.4,5.6l-0.5,2.5c-0.6,2.8-0.9,4.2-2.6,5.2c-1.2,0.7-2.8,0.7-3.1,0.7 c-1.2,0-2.7-0.2-3.8-1.2l0-0.1c0.3-0.7,0.6-1.2,0.9-1.9l0.2,0c0.6,0.6,1.3,1.2,2.5,1.2c2,0,2.4-1.5,2.7-2.4l0.2-0.6 c-0.4,0.3-1.3,0.8-2.3,0.8c-2.2,0-3.1-1.7-3.1-3.4c0-1.5,0.6-2.8,0.8-3.3c1.5-3,4.2-3,6.5-3c0.8,0,3.1,0,3.1,0L497.1,141.5z M493.6,143.5c0,0-0.2,0-0.3,0c-0.2,0-1.2,0-1.9,0.4c-1.2,0.7-1.7,2.5-1.7,3.4c0,1.4,0.6,1.9,1.4,1.9c0,0,0.8,0,1.3-0.5 L493.6,143.5z" class="st1"/> <path d="M507.2,141.5c-0.8,1.2-2.5,4.2-4.7,8c-1.1,2-1.9,3.5-3.1,5.8l-0.2,0.1c-1,0-1.7,0-2.7,0.1l-0.1-0.1 c0.9-1.4,1.8-2.7,2.6-4.2c0-0.1-0.9-7.4-1.3-9.6l0.1-0.2c1.1,0,1.9,0,3-0.1l0.1,0.1c0,1,0.1,1.6,0.1,2.4l0.3,3.6 c2-3.8,2.4-4.7,3-5.9l0.1-0.1c1,0,1.6,0,2.5-0.1L507.2,141.5z" class="st1"/> <path d="M511.8,148.4c0.2,0.4,1.3,1.4,3,1.4c2.1,0,3-1.2,3-2.3c0-1.1-0.7-1.6-2-2.3l-0.6-0.3 c-1.2-0.6-2.3-1.3-2.3-3.1c0-1.7,1.2-3.8,4.6-3.8c1.7,0,2.8,0.5,3.5,1l0.1,0.1c-0.2,0.5-0.3,0.9-0.5,1.5l-0.2,0 c-0.7-0.9-2-1.2-2.8-1.2c-1.9,0-2.7,1-2.7,2.1c0,1,0.6,1.4,2,2.1l0.5,0.3c1.2,0.6,2.4,1.5,2.4,3.3c0,1.8-1.4,4.1-4.9,4.1 c-1.7,0-3.2-0.5-3.8-1.1l-0.1-0.2c0.2-0.6,0.3-1,0.4-1.6L511.8,148.4z" class="st0"/> <path d="M526.4,141.4c2.2,0,3.9,1.1,3.9,3.5c0,1.9-0.9,6.2-5.1,6.2c-1.1,0-3.7-0.3-3.7-3.6 C521.3,144.7,522.9,141.4,526.4,141.4z M525.1,149.9c2.7,0,3.2-4.4,3.2-5c0-1.7-1.1-2.1-1.9-2.1c-2.5,0-3.2,3.7-3.2,5 C523.3,148.9,523.8,149.9,525.1,149.9z" class="st0"/> <path d="M537.6,150.7c-0.6,0.4-1.7,0.5-2.3,0.5c-2.3,0-3.9-1.7-3.9-4c0-1.5,0.6-3.8,2.6-5c1-0.6,2.1-0.7,2.6-0.7 c1.3,0,2.2,0.3,2.8,0.7l0.1,0.1c-0.2,0.5-0.3,0.9-0.5,1.4l-0.2,0.1c-0.3-0.5-1.1-0.9-2-0.9c-2.3,0-3.5,2.4-3.5,4.2 c0,2.1,1.6,2.7,2.5,2.7c0.3,0,1.2,0,2.2-0.9l0.1,0.1c-0.2,0.6-0.3,1-0.5,1.6L537.6,150.7z" class="st0"/> <path d="M540.8,151c-0.7,0-1.2,0-1.9,0.1l-0.1-0.1c0.6-2.1,1.9-8,1.9-9l0.1-0.1c0.7-0.1,1.2-0.2,2-0.3l0.1,0.1 c-0.1,0-1.6,6.8-2,9.3L540.8,151z M543.4,139.1c-0.7,0.1-1.2,0.1-1.9,0.3l-0.1-0.1c0.1-0.6,0.3-1,0.4-1.7l0.2-0.1 c0.7-0.1,1.2-0.1,1.9-0.3l0.1,0.1c-0.2,0.6-0.3,1-0.4,1.7L543.4,139.1z" class="st0"/> <path d="M550.8,150.5c-0.6,0.4-1.5,0.7-2.9,0.7c-3.1,0-4.2-1.8-4.2-3.9c0-3.2,1.9-5.9,5-5.9c2.1,0,3.6,1,3.6,3.4 c0,0.7-0.2,1.4-0.2,1.6l-0.1,0.1c-0.9,0-2.6,0-4.2,0c-0.8,0-1.4,0-2.2,0c0,0.1-0.1,0.4-0.1,0.8c0,2.4,2.1,2.4,2.7,2.4 c1.5,0,2.3-0.6,3-1.1l0.1,0.1c-0.2,0.6-0.3,1-0.5,1.6L550.8,150.5z M550.6,145.2c0.1-0.4,0.1-0.6,0.1-0.8c0-1.6-1.4-1.8-1.9-1.8 c-2.1,0-2.8,1.9-3,2.6C545.8,145.3,549.4,145.2,550.6,145.2z" class="st0"/> <path d="M556.7,150.9c-0.6,0.1-1.1,0.2-1.3,0.2c-1.7,0-2.1-0.9-2.1-1.8c0-0.7,0.4-2.3,0.9-4.4l0.5-1.9h-0.4 c-0.3,0-0.6,0-0.9,0l-0.1-0.1c0.1-0.4,0.2-0.7,0.3-1.2l0.1-0.1c0.5,0,0.8,0,1.2,0c0.2-0.8,0.3-1.4,0.5-2.3l0.1-0.1 c0.7-0.1,1.2-0.3,1.9-0.5l0.1,0.1c-0.1,0.5-0.2,0.8-0.4,1.3l-0.3,1.4c0.7,0,1.2,0,2,0l0.1,0.1c-0.2,0.4-0.3,0.8-0.4,1.2l-0.1,0.1 c-0.7,0-1.2,0-1.9,0l-1,4.1c-0.1,0.4-0.3,1.5-0.3,1.8c0,0.6,0.4,0.8,0.9,0.8c0.5,0,0.9-0.2,1.1-0.2l0.1,0.1 c-0.1,0.5-0.3,0.8-0.4,1.3L556.7,150.9z" class="st0"/> <path d="M567.6,141.7c-2.2,3.5-7.2,12-7.9,13.5l-0.1,0.1h-0.8c-0.4,0-0.7,0-1.1,0l-0.1-0.1c0.5-0.8,2.3-3.5,2.7-4.3 c-0.7-4.5-1.3-8.9-1.4-9.1l0.1-0.1c0.7,0,1.2,0,1.9-0.1l0.1,0.1c0.1,1,0.1,1.7,0.3,2.7l0.5,4.2l1.7-3.1c0.7-1.2,1.4-2.4,2-3.7 l0.1-0.1c0.2,0,0.4,0,0.6,0c0.4,0,0.7,0,1.2,0L567.6,141.7z" class="st0"/> </g> </g> <g> <path d="M147.2,140.8c-0.3,3.6-0.4,7.4-0.6,10.7l-0.7,0.5c-12.8,0-25.7,0.1-38.6,0.2l-0.4-0.6 c0.4-8.1,0.4-16.1,0.4-24.3v-18.1c0-6.2-0.1-12.4-0.6-18.5l0.5-0.5c9.6,0,32.7-0.2,38.5-0.2l0.4,0.5c-0.3,3.6-0.5,6.7-0.6,10.2 l-0.5,0.5c-7.5-0.2-15-0.3-22.4-0.3c0,1.7-0.1,4-0.1,6.5c0,2.8,0,5.6,0.1,7.5c7.1,0,14.1-0.1,21.1-0.4l0.5,0.6 c-0.3,3.3-0.4,6.6-0.6,9.9l-0.5,0.5c-12.9-0.1-20.5-0.1-20.5-0.1c0,5.2,0.1,10.3,0.2,15.3c8.1,0,16-0.2,24-0.6L147.2,140.8z M221.4,152h-2.9c-4.6,0-7.7,0.1-12.3,0.3l-0.4-0.5c-0.1-16.5-0.3-39.5-0.3-50.1c-0.7,3-13.1,48.5-13.5,49.9l-0.5,0.5h-2.5 c-3.9,0-6.7,0.1-10.6,0.3l-0.5-0.5c-2.7-11.3-12.2-45.7-13.1-50.6c0,3.6-1.1,46.1-1.1,50.3l-0.5,0.5h-2.8c-3.5,0-6,0.1-9.6,0.3 l-0.4-0.5c1.5-20.4,2.7-40.4,3.2-61.1l0.5-0.5h4.4c6,0,10.3-0.1,16.4-0.3l0.4,0.5c-0.1,0.4,8.5,32.9,10.7,42.4 c2.7-10.3,11.1-40.6,11.7-42.2l0.5-0.5h4.4c5.9,0,10.1-0.1,16-0.3l0.5,0.5c0.4,20,1.8,40.8,2.7,61.1L221.4,152z M229.7,151.7 c0.4-22.7,0.4-29.5,0.4-36.3c0-8.2-0.2-16.5-0.5-24.7l0.5-0.5c4.2,0,20.8-0.4,23.4-0.4c7.9,0,12.7,0.4,16.9,3.9 c2.4,2,4.7,5.4,4.7,10.7c0,8.2-5.5,12.1-10.2,13.8c6.4,0.7,12.8,5.1,12.8,14.7c0,6.2-2.7,12.7-10,16.2c-5.8,2.8-12.3,3.1-18.4,3.1 h-19L229.7,151.7z M244.9,142.2h3.2c5.4,0,13.3-0.4,13.3-8.5c0-5.4-3.2-8.4-10.2-8.4c-1.9,0-4.6,0-6.5,0.1 C244.8,128.5,244.9,136.6,244.9,142.2z M249,115c4.5,0,10.7-1.3,10.7-8.2c0-7.2-7.2-7.4-9.1-7.4c-1.9,0-3.9,0.1-5.7,0.2v15.3 C244.9,114.9,246.9,115,249,115z M280.2,149.4c0.4-4.6,0.5-7.8,0.6-12.4l0.8-0.3c3.3,2.5,7.6,5.4,15.2,5.4 c6.6,0,10.4-3.1,10.4-7.3c0-4-3.9-6.4-10.3-9.2l-3.2-1.4c-4.8-2.1-13.1-6.2-13.1-16.9c0-10.8,7.2-18.6,22-18.6 c8.2,0,12.7,1.6,16.5,3.2l0.4,0.5c-0.4,4.1-0.6,7.3-0.8,11.6l-0.8,0.4c-5.7-4.5-11.4-4.9-13.4-4.9c-5.7,0-8.8,2.7-8.8,6 c0,4.2,3.9,5.8,9.4,8l4.2,1.7c7.9,3.2,13.2,8.5,13.2,18.2c0,12-8.9,19.9-23.8,19.9c-9.4,0-13.9-1.8-18-3.2L280.2,149.4z" class="st1"/> <g> <path d="M113.2,81.3h-3.2c-0.7,0-3.7,0.1-3.7,0.1l-0.2-0.2c0.1-3.6,0.2-7.2,0.2-10.8v-2.7c0-4.5,0-9-0.3-13.5 l0.2-0.2h2.7c1.3,0,3.5-0.1,4.3-0.1l0.2,0.2c-0.1,5.3-0.2,10.6-0.2,16c0,3.7,0.1,7.4,0.3,11L113.2,81.3z" class="st0"/> <path d="M135.3,76.4c-0.1,1.6-0.2,3.3-0.3,4.7l-0.3,0.2c-5.7,0-11.3,0-17,0.1l-0.2-0.3c0.2-3.6,0.2-7.1,0.2-10.7v-8 c0-2.7,0-5.5-0.3-8.2l0.2-0.2c4.2,0,14.4-0.1,17-0.1l0.2,0.2c-0.1,1.6-0.2,3-0.3,4.5l-0.2,0.2c-3.3-0.1-6.6-0.1-9.9-0.1 c0,0.7,0,1.8,0,2.9c0,1.2,0,2.5,0,3.3c3.1,0,6.2,0,9.3-0.2l0.2,0.3c-0.1,1.5-0.2,2.9-0.3,4.4l-0.2,0.2c-5.7,0-9.1,0-9.1,0 c0,2.3,0,4.5,0.1,6.8c3.6,0,7.1-0.1,10.6-0.3L135.3,76.4z" class="st0"/> <path d="M155.5,76.4c-0.1,1.6-0.2,3.3-0.3,4.7l-0.3,0.2c-5.7,0-11.3,0-17,0.1l-0.2-0.3c0.2-3.6,0.2-7.1,0.2-10.7v-8 c0-2.7,0-5.5-0.3-8.2l0.2-0.2c4.2,0,14.4-0.1,17-0.1l0.2,0.2c-0.1,1.6-0.2,3-0.3,4.5l-0.2,0.2c-3.3-0.1-6.6-0.1-9.9-0.1 c0,0.7,0,1.8,0,2.9c0,1.2,0,2.5,0,3.3c3.1,0,6.2,0,9.3-0.2l0.2,0.3c-0.1,1.5-0.2,2.9-0.3,4.4l-0.2,0.2c-5.7,0-9.1,0-9.1,0 c0,2.3,0,4.5,0.1,6.8c3.6,0,7.1-0.1,10.6-0.3L155.5,76.4z" class="st0"/> <path d="M175.8,76.4c-0.1,1.6-0.2,3.3-0.3,4.7l-0.3,0.2c-5.7,0-11.3,0-17,0.1l-0.2-0.3c0.2-3.6,0.2-7.1,0.2-10.7v-8 c0-2.7,0-5.5-0.3-8.2l0.2-0.2c4.2,0,14.4-0.1,17-0.1l0.2,0.2c-0.1,1.6-0.2,3-0.3,4.5l-0.2,0.2c-3.3-0.1-6.6-0.1-9.9-0.1 c0,0.7,0,1.8,0,2.9c0,1.2,0,2.5,0,3.3c3.1,0,6.2,0,9.3-0.2l0.2,0.3c-0.1,1.5-0.2,2.9-0.3,4.4l-0.2,0.2c-5.7,0-9.1,0-9.1,0 c0,2.3,0,4.5,0.1,6.8c3.6,0,7.1-0.1,10.6-0.3L175.8,76.4z" class="st0"/> </g> <g> <path d="M71.2,127c-3.4-0.3-6.2,2.5-5.9,5.9c0.2,2.5,2.3,4.6,4.8,4.8c3.4,0.3,6.2-2.5,5.9-5.9 C75.7,129.3,73.7,127.3,71.2,127z" class="st1"/> <path d="M82,110.8c-3.4-0.3-6.2,2.5-5.9,5.9c0.2,2.5,2.3,4.6,4.8,4.8c3.4,0.3,6.2-2.5,5.9-5.9 C86.5,113.1,84.5,111,82,110.8z" class="st1"/> <path d="M93.8,95.5c-3.4-0.3-6.2,2.5-5.9,5.9c0.2,2.5,2.3,4.6,4.8,4.8c3.4,0.3,6.2-2.5,5.9-5.9 C98.4,97.7,96.3,95.7,93.8,95.5z" class="st1"/> <path d="M84.3,81.5c-3.4-0.3-6.2,2.5-5.9,5.9c0.2,2.5,2.3,4.6,4.8,4.8c3.4,0.3,6.2-2.5,5.9-5.9 C88.8,83.8,86.8,81.8,84.3,81.5z" class="st1"/> <path d="M58.9,54.7c-3.4-0.3-6.2,2.5-5.9,5.9c0.2,2.5,2.3,4.6,4.8,4.8c3.4,0.3,6.2-2.5,5.9-5.9 C63.4,57,61.4,55,58.9,54.7z" class="st1"/> <path d="M58.8,142c-3.4-0.3-6.2,2.5-5.9,5.9c0.2,2.5,2.3,4.6,4.8,4.8c3.4,0.3,6.2-2.5,5.9-5.9 C63.3,144.3,61.3,142.2,58.8,142z" class="st1"/> <line y2="146" x2="74.9" y1="146.1" x1="74.9" class="st0"/> <path d="M71.2,68.9c-3.4-0.3-6.2,2.5-5.9,5.9c0.2,2.5,2.3,4.6,4.8,4.8c3.4,0.3,6.2-2.5,5.9-5.9 C75.7,71.2,73.7,69.2,71.2,68.9z" class="st1"/> </g> <g> <path d="M84.3,99.8l-29.5,1.7c-0.7-2.1-2.7-3.6-5.1-3.6c-3,0-5.4,2.4-5.4,5.4c0,3,2.4,5.4,5.4,5.4 c2.4,0,4.4-1.5,5.1-3.7l29.5-1.7c1,0,1.8-0.8,1.8-1.8C86.1,100.6,85.3,99.8,84.3,99.8z" class="st0"/> <path d="M74.6,85.9l-10.7,0.7c-0.8-1.9-2.7-3.2-4.9-3.2c-3,0-5.4,2.4-5.4,5.4c0,3,2.4,5.4,5.4,5.4 c2.5,0,4.6-1.7,5.2-4.1l10.4-0.7c1,0,1.8-0.8,1.8-1.8C76.4,86.6,75.6,85.9,74.6,85.9z" class="st0"/> <path d="M72.8,115.1l-8.9,0.6c-0.8-1.9-2.7-3.3-5-3.3c-3,0-5.4,2.4-5.4,5.4c0,3,2.4,5.4,5.4,5.4c2.5,0,4.6-1.7,5.2-4 l8.7-0.6c1,0,1.8-0.8,1.8-1.8C74.6,115.9,73.8,115.1,72.8,115.1z" class="st0"/> <path d="M82.3,53.5c-2.4,0-4.5,1.6-5.2,3.8l-9.3,0.6c-1,0-1.8,0.8-1.8,1.8c0,1,0.8,1.8,1.8,1.8l9.4-0.6 c0.8,2,2.7,3.4,5,3.4c3,0,5.4-2.4,5.4-5.4C87.7,55.9,85.3,53.5,82.3,53.5z" class="st0"/> <path d="M82.3,140.7c-2.4,0-4.4,1.5-5.1,3.7L67.1,145c-1,0-1.8,0.8-1.8,1.8c0,1,0.8,1.8,1.8,1.8l10.1-0.7 c0.7,2.1,2.7,3.6,5.1,3.6c3,0,5.4-2.4,5.4-5.4S85.3,140.7,82.3,140.7z" class="st0"/> </g> </g> </g> <g> <path d="M323.9,150.1c-1.7,0-3-1.2-3-2.9s1.3-2.9,3-2.9c1.7,0,2.9,1.2,2.9,2.9C326.8,148.9,325.6,150.1,323.9,150.1z M323.9,144.8c-1.4,0-2.4,1-2.4,2.4c0,1.3,1.1,2.4,2.4,2.4c1.3,0,2.3-1,2.3-2.4C326.2,145.9,325.2,144.8,323.9,144.8z M325.3,148.9 c-0.3,0-0.4,0-0.8,0l-0.1,0c0,0-0.3-0.7-0.7-1.3c-0.1,0-0.1,0-0.2,0h-0.1v0.2c0,0.3,0,0.8,0,1l0,0.1h-0.7l-0.1-0.1 c0-0.6,0-1.2,0-1.4c0-0.7,0-1.3,0-1.9l0.1-0.1c0,0,0.7,0,0.8,0c0.5,0,0.7,0,0.9,0.1c0.3,0.1,0.5,0.5,0.5,0.9c0,0.5-0.2,0.7-0.6,0.9 C324.8,148,325.1,148.4,325.3,148.9L325.3,148.9z M323.5,146v0.4c0,0.1,0,0.3,0,0.5c0,0,0.1,0,0.1,0c0.5,0,0.7-0.2,0.7-0.5 c0-0.3-0.2-0.5-0.6-0.5H323.5z" class="st0"/> </g> </svg>