<?xml version="1.0" encoding="utf-8" ?><svg xmlns="http://www.w3.org/2000/svg" xmlns:xlink="http://www.w3.org/1999/xlink" width="1146" height="1130" viewBox="0 0 1146 1130"><path fill="#FDFAEE" d="M550.243 267.036C706.61 257.216 841.289 376.13 850.944 532.539C860.599 688.947 741.569 823.53 585.182 833.025C429.024 842.505 294.71 723.664 285.069 567.485C275.428 411.306 394.106 276.841 550.243 267.036Z"/><path fill="#FDFAEE" d="M593.028 282.688C599.011 281.658 606.328 278.924 611.675 275.995C616.831 283.923 630.696 300.981 633.607 308.112C632.357 311.334 625.888 313.008 623.962 317.502C620.853 324.754 619.428 333.408 618.355 341.182C614.257 370.877 618.229 398.262 628.981 426.1C631.606 432.707 634.713 438.746 639.563 444.02C644.005 451.313 649.02 458.23 653.52 465.483C668.686 489.931 685.648 522.407 678.535 551.824C675.263 565.356 668.142 576.788 656.083 583.995C632.274 598.224 605.427 603.706 578.106 605.699C569.016 606.362 558.452 606.143 549.648 608.435C563.883 628.738 576.109 650.371 584.156 673.889C584.669 676.078 585.2 678.191 585.953 680.31C588.521 687.486 588.891 696.555 588.497 704.125C587.732 717.184 581.767 729.391 571.936 738.018C547.512 759.601 499.372 763.496 467.856 761.635C469.944 763.948 474.898 767.425 475.463 770.43L474.698 771.379C473.6 771.71 472.63 771.917 471.476 771.942C465.594 772.068 447.091 771.649 442.928 767.78C441.116 763.435 440.997 758.135 439.932 753.532C439.41 751.273 438.367 749.186 437.993 746.886C437.863 746.083 437.979 745.444 438.205 744.675C445.79 740.987 454.823 742.344 462.934 742.025C490.844 740.926 531.546 736.687 551.417 714.929C559.676 705.886 562.948 695.353 562.391 683.256C561.395 661.663 550.294 642.436 539.353 624.454C536.522 619.801 533.485 613.742 529.443 610.083C524.582 604.456 520.477 597.755 515.727 591.912C512.686 584.874 506.717 577.901 502.612 571.297C487.482 546.958 469.957 515.982 470.392 486.581C470.594 472.957 475.419 460.23 485.274 450.702C509.233 427.538 555.244 425.601 586.943 425.973C593.365 425.879 604.922 424.802 610.634 426.929L612.494 426.874C590.765 381.264 588.401 342.719 603.093 294.388C599.494 290.63 596.238 286.776 593.028 282.688Z"/><path fill="#236382" d="M586.943 425.973C593.365 425.879 604.922 424.802 610.634 426.929L612.494 426.874C615.628 432.306 618.898 437.7 621.713 443.306C586.849 442.977 528.459 443.096 502.235 468.535C494.115 476.412 489.797 486.919 489.706 498.225C489.496 524.417 510.249 555.769 525.778 576.189C528.671 579.995 531.49 584.398 534.79 587.824C538.896 594.875 543.887 602.612 549.648 608.435C563.883 628.738 576.109 650.371 584.156 673.889C584.669 676.078 585.2 678.191 585.953 680.31C588.521 687.486 588.891 696.555 588.497 704.125C587.732 717.184 581.767 729.391 571.936 738.018C547.512 759.601 499.372 763.496 467.856 761.635C469.944 763.948 474.898 767.425 475.463 770.43L474.698 771.379C473.6 771.71 472.63 771.917 471.476 771.942C465.594 772.068 447.091 771.649 442.928 767.78C441.116 763.435 440.997 758.135 439.932 753.532C439.41 751.273 438.367 749.186 437.993 746.886C437.863 746.083 437.979 745.444 438.205 744.675C445.79 740.987 454.823 742.344 462.934 742.025C490.844 740.926 531.546 736.687 551.417 714.929C559.676 705.886 562.948 695.353 562.391 683.256C561.395 661.663 550.294 642.436 539.353 624.454C536.522 619.801 533.485 613.742 529.443 610.083C524.582 604.456 520.477 597.755 515.727 591.912C512.686 584.874 506.717 577.901 502.612 571.297C487.482 546.958 469.957 515.982 470.392 486.581C470.594 472.957 475.419 460.23 485.274 450.702C509.233 427.538 555.244 425.601 586.943 425.973Z"/><path fill="#3D7891" d="M586.943 425.973C593.365 425.879 604.922 424.802 610.634 426.929C607.096 426.668 605.035 429.071 601.682 429.852C599.637 430.328 597.294 430.203 595.202 430.189C594.676 429.464 594.149 428.743 593.578 428.053C591.879 425.997 589.399 426.178 586.943 425.973Z"/><path fill="#3D7891" d="M584.156 673.889C584.669 676.078 585.2 678.191 585.953 680.31C584.39 680.508 583.281 680.749 581.813 679.994C581.378 677.864 583.068 675.714 584.156 673.889Z"/><path fill="#7C287D" d="M593.028 282.688C599.011 281.658 606.328 278.924 611.675 275.995C616.831 283.923 630.696 300.981 633.607 308.112C632.357 311.334 625.888 313.008 623.962 317.502C620.853 324.754 619.428 333.408 618.355 341.182C614.257 370.877 618.229 398.262 628.981 426.1C631.606 432.707 634.713 438.746 639.563 444.02C644.005 451.313 649.02 458.23 653.52 465.483C668.686 489.931 685.648 522.407 678.535 551.824C675.263 565.356 668.142 576.788 656.083 583.995C632.274 598.224 605.427 603.706 578.106 605.699C569.016 606.362 558.452 606.143 549.648 608.435C543.887 602.612 538.896 594.875 534.79 587.824C541.815 587.473 548.914 587.76 555.952 587.555C583.215 586.759 615.753 584.135 638.958 568.436C648.652 561.877 656.087 552.161 658.308 540.504C659.824 532.553 658.908 524.35 657.412 516.47C652.166 488.838 637.372 466.101 621.713 443.306C618.898 437.7 615.628 432.306 612.494 426.874C590.765 381.264 588.401 342.719 603.093 294.388C599.494 290.63 596.238 286.776 593.028 282.688Z"/><path fill="#7C287D" d="M559.764 457.862C560.878 457.781 561.998 457.815 563.106 457.963C564.462 458.145 565.456 458.625 566.53 459.469C569.476 461.789 571.855 465.21 574.36 468.018C577.804 471.88 581.814 475.442 585.969 478.52C593.353 483.991 602.118 488.557 610.892 491.302C617.124 493.252 628.977 492.56 632.971 498.419C634.245 500.288 634.689 502.446 634.118 504.648C633.248 508.012 631.225 509.747 628.407 511.552C625.466 511.689 622.638 511.403 619.744 510.907C593.127 506.35 569.701 492.307 554.04 470.206C553.962 468.012 553.663 465.319 554.186 463.193C554.907 460.264 557.35 459.184 559.764 457.862Z"/><path fill="#7C287D" d="M551.815 506.464C553.152 506.405 554.622 506.404 555.938 506.654C560.864 507.59 565.777 515.805 569.698 519.115C577.426 525.639 594.659 524.952 598.672 531.357C599.824 533.195 600.1 535.508 599.582 537.601C598.844 540.585 596.63 542.251 594.07 543.65C590.738 544.001 587.083 543.641 583.787 543.085C570.653 540.868 555.716 532.989 548.137 521.73C546.514 519.318 545.433 516.567 546.05 513.634C546.789 510.117 548.995 508.424 551.815 506.464Z"/><path fill="#7C287D" d="M381.589 714.068C372.602 696.355 362.316 667.288 364.391 647.274C366.096 630.833 371.067 617.996 384.266 607.399C415.885 582.014 477.803 587.593 515.727 591.912C520.477 597.755 524.582 604.456 529.443 610.083C520.168 610.07 510.068 607.205 500.841 605.767C496.626 605.508 492.422 605.105 488.234 604.559C462.659 603.126 431.833 600.161 408.552 612.806C399.189 617.892 392.99 625.713 390.105 635.979C388.128 643.014 388.502 649.341 389.368 656.504C392.74 684.404 407.099 708.202 420.483 732.327C414.374 732.524 408.278 733.255 402.177 733.64L363.311 735.924C359.831 728.701 356.086 721.602 353.178 714.122C362.466 713.328 372.249 714.041 381.589 714.068Z"/><path fill="#8C3B8F" d="M488.234 604.559C488.438 604.549 488.642 604.542 488.846 604.527C492.403 604.271 496.34 601.027 499.495 602.544C499.973 603.61 500.481 604.655 500.841 605.767C496.626 605.508 492.422 605.105 488.234 604.559Z"/><path fill="#236382" d="M777.466 377.041C785.77 384.222 792.072 393.318 799.97 400.871C795.917 406.854 791.236 414.068 785.746 418.755C783.923 415.757 782.077 412.774 780.207 409.805C751.18 434.114 714.502 447.387 676.644 447.284C667.225 447.296 657.452 446.112 648.074 445.219C645.221 444.945 642.381 444.545 639.563 444.02C634.713 438.746 631.606 432.707 628.981 426.1C677.761 435.231 722.999 425.568 763.96 397.545C765.908 396.212 767.808 394.792 769.869 393.637C768.496 391.342 767.137 389.042 765.673 386.802C769.495 383.405 773.754 380.546 777.466 377.041Z"/><path fill="#236382" d="M443.934 622.021C446.017 621.83 449.224 621.384 451.107 622.482C454.823 624.65 458.215 628.914 461.418 631.877C468.522 638.451 477.095 644.639 485.88 648.746C494.938 652.98 505.845 657.058 515.829 658.312C520.705 658.924 525.775 658.748 530.598 659.66C533.294 660.17 535.814 661.391 537.268 663.828C538.43 665.776 538.448 667.878 537.851 670.022C536.893 673.466 535.038 674.86 532.023 676.553C520.543 677.231 507.263 674.533 496.382 671.186C478.749 665.766 462.546 656.484 448.951 644.014C445.491 640.885 441.53 637.361 439.436 633.12C438.489 631.202 437.937 629.049 438.716 626.968C439.634 624.516 441.627 623.031 443.934 622.021Z"/><path fill="#236382" d="M648.344 324.194C650.592 323.989 653.183 323.645 655.414 324.039C656.486 324.228 657.317 324.794 658.099 325.526C661.239 328.465 663.887 332.439 666.645 335.761C670.787 340.752 675.608 345.67 680.539 349.903C687.178 355.6 695.752 360.132 703.771 363.534C708.918 365.718 724.8 369.342 727.323 373.525C728.514 375.501 728.552 377.834 727.986 380.022C727.224 382.972 725.85 384.413 723.281 385.926C722.513 386.03 721.775 386.125 720.998 386.123C701.544 386.06 673.1 367.536 659.768 354.027C654.619 348.81 643.964 338.63 644.362 330.647C644.505 327.794 646.364 326.013 648.344 324.194Z"/><path fill="#236382" d="M448.875 666.035L449.101 666.03C450.267 665.996 451.6 665.889 452.72 666.266C458.536 668.223 465.343 680.648 472.444 684.692C481.369 689.775 490.487 689.493 500.014 692.001C502.56 692.671 505.052 694.103 506.299 696.51C507.337 698.514 507.377 701.018 506.615 703.124C505.622 705.871 503.296 707.033 500.809 708.199C494.774 708.275 488.747 707.738 482.82 706.597C468.172 703.642 453.167 694.749 445.031 681.925C443.189 679.021 441.632 675.669 442.615 672.171C443.486 669.07 446.222 667.456 448.875 666.035Z"/><path fill="#236382" d="M644.521 370.026C646.013 369.968 647.747 369.742 649.199 370.125C654.105 371.422 659.064 378.811 663.118 381.979C670.245 387.549 686.03 389.481 689.009 394.494C690.291 396.651 690.318 399.459 689.594 401.813C688.639 404.919 686.1 406.029 683.41 407.396C680.239 407.556 676.775 406.434 673.728 405.613C662.169 402.497 645.494 393.198 639.636 382.375C638.495 380.267 637.852 377.914 638.728 375.58C639.744 372.871 642.047 371.276 644.521 370.026Z"/></svg>