<?xml version="1.0" encoding="utf-8" ?><svg xmlns="http://www.w3.org/2000/svg" xmlns:xlink="http://www.w3.org/1999/xlink" width="1146" height="1130" viewBox="0 0 1146 1130"><path fill="#7C2A7D" d="M499.597 88.3005C504.088 71.2428 510.36 36.9844 519.494 23.2736C521.561 20.1034 524.329 17.4512 527.585 15.522C529.986 14.1195 532.843 12.8951 535.622 12.5522C545.798 11.2966 557.095 12.5772 567.451 12.2807C571.982 12.151 576.526 12.0423 581.04 11.617C584.438 11.2968 587.941 10.5865 591.349 10.5945C593.701 10.5973 596.041 10.9254 598.304 11.5697C602.5 12.75 605.158 15.2155 607.229 19.0215C612.532 28.7672 619.146 49.1359 622.13 60.0033C624.216 67.6044 625.89 76.0562 629.182 83.209C630.152 85.3164 631.058 86.6611 633.339 87.4294C643.633 90.8949 658.056 91.855 669.118 94.4465C698.188 101.257 727.712 110.686 755.002 122.871C774.518 131.585 794.637 141.411 812.607 153.058C821.645 158.916 836.586 171.229 845.404 175.182C850.246 172.013 855.243 169.107 860.025 165.845C863.236 163.653 866.258 161.047 869.633 159.118C878.834 153.859 889.067 149.306 898.669 144.776C901.158 143.602 903.557 141.34 906.078 140.485C909.974 139.164 918.004 139.449 921.986 140.325C924.379 140.852 926.477 142.299 928.36 143.807C933.464 147.894 937.541 153.262 942.339 157.699C953.482 168.005 966.01 177.146 975.414 189.254C975.67 191.397 976.147 193.888 975.88 196.033C975.303 200.664 972.707 205.209 970.828 209.406C967.169 217.579 963.539 225.723 959.41 233.676C955.144 241.894 941.016 261.457 941.557 270.397C941.776 274.026 964.946 306.984 969.126 314.031C971.288 317.677 972.927 321.691 974.949 325.428C978.241 331.516 981.872 337.377 984.944 343.59C999.009 372.03 1010.53 403.011 1020.03 433.271C1022.83 442.196 1025.71 451.228 1027.8 460.348C1029.54 467.957 1030.47 476.35 1032.98 483.714C1033.59 485.521 1034.25 486.965 1035.84 488.118C1040.65 491.609 1048.9 492.708 1054.69 494.009C1072.98 498.122 1117.53 505.964 1130.19 518.279C1133.19 521.202 1134.62 525.142 1135.41 529.183C1137.29 538.744 1136.7 590.103 1134.89 599.165C1119.7 608.461 1093.47 614.973 1076.05 620.331C1068.76 622.572 1061.7 625.433 1054.48 627.868C1048.88 629.755 1043.21 631.108 1037.81 633.568C1037.73 633.787 1037.65 634.005 1037.57 634.225C1035.66 639.719 1035.06 645.859 1034.08 651.582C1032.73 659.557 1031.25 667.426 1029.32 675.285C1019.5 715.336 1008.1 747.099 989.284 783.817C982.202 797.64 974.871 810.802 966.389 823.84C962.486 829.84 952.268 842.436 949.976 848.094C948.944 850.642 949.636 852.494 950.84 854.85C953.564 860.185 957.573 864.954 960.831 869.983C968.684 882.104 984.048 907.78 979.767 922.574C979.06 925.016 977.495 927.01 975.666 928.73C970.314 933.767 963.546 937.482 957.943 942.357C947.342 951.581 937.211 965.307 924.678 971.915C921.124 973.789 918.997 973.761 915.197 972.489C904.629 968.952 893.697 963.795 883.997 958.299C875.653 953.572 867.223 947.769 858.146 944.558C856.391 943.938 855.227 943.708 853.475 944.482C847.807 946.984 842.531 951.884 837.456 955.45C829.34 961.154 820.773 966.791 812.295 971.929C782.085 990.24 749.744 1003.03 716.363 1014.21C699.297 1019.92 681.331 1023.92 663.689 1027.41C657.448 1028.65 650.178 1028.75 644.188 1030.71C642.213 1031.36 641.256 1033.65 640.599 1035.46C636.93 1045.51 634.334 1063.59 631.79 1074.8C629.063 1086.82 620.392 1120.38 609.601 1125.81C605.397 1127.93 600.658 1127.96 596.075 1127.78C587.706 1127.65 579.331 1127.8 570.96 1127.71C562.095 1127.97 543.035 1129.73 535.446 1127.75C533.604 1127.27 531.767 1125.93 530.168 1124.92C527.922 1120.31 526.35 1115.48 524.524 1110.7C522.105 1104.37 519.448 1098.03 517.395 1091.58C512.615 1076.56 508.751 1061.61 503.216 1046.79C501.376 1041.87 500.03 1035.99 497.439 1031.48C496.635 1030.08 495.855 1029.87 494.375 1029.37C488.842 1027.49 482.475 1026.99 476.727 1025.86C465.628 1023.7 454.585 1021.25 443.611 1018.52C397.491 1006.65 353.48 987.725 313.131 962.421C308.699 959.615 283.705 942.947 282.114 942.83C280.588 942.719 278.195 943.982 276.893 944.659C255.896 955.564 209.962 994.091 186.243 987.339C183.022 986.423 180.129 984.698 177.614 982.507C173.11 978.583 170.575 973.196 166.534 968.923C163.608 965.829 159.981 963.383 156.637 960.772C149.964 955.565 142.148 948.499 138.13 940.953C135.024 935.121 134.206 929.371 136.195 923.022C138.656 915.164 142.503 906.285 146.281 898.948C149.793 892.126 154.163 885.742 157.848 879.009C160.68 873.835 162.757 868.269 165.53 863.043C168.61 857.237 173.542 849.873 174.803 843.445C175.146 841.693 174.925 840.927 174.167 839.363C172.214 835.338 168.94 831.418 166.453 827.679C159.813 817.693 152.811 807.64 146.532 797.453C144.408 794.008 142.775 790.278 140.802 786.748C122.74 754.427 110.654 724.845 100.236 689.325C98.7634 684.302 96.6445 679.378 95.541 674.267C94.0051 667.152 91.1075 644.176 86.944 638.978C86.0261 637.832 84.2322 637.139 82.8871 636.69C77.2469 634.808 70.968 633.937 65.1499 632.641C51.2917 629.555 16.5953 621.933 9.44067 608.931C8.49633 607.215 8.15211 605.633 7.95666 603.692C7.13068 595.486 7.92865 586.822 7.68413 578.551C7.37101 567.961 3.29912 547.468 6.25345 538.348C7.5873 534.102 10.6311 530.604 14.6522 528.697C18.2048 527.022 22.1223 525.846 25.7977 524.435C32.4787 521.87 39.1639 519.072 45.9843 516.91C52.8897 514.722 60.0021 513.249 66.9164 511.11C71.9817 509.544 76.8413 507.49 81.7751 505.575C83.457 504.922 84.5141 503.839 85.7645 502.569C89.1597 464.67 100.367 424.883 114.294 389.572C116.964 382.8 120.104 376.28 122.977 369.602C126.892 360.504 131.654 348.157 136.615 339.826C146.385 323.419 156.696 306.817 167.657 291.188C169.705 288.267 179.623 276.753 180.16 274.235C180.423 273.001 178.612 270.034 177.961 268.938C166.233 249.201 152.556 231.532 143.416 210.231C142.115 207.199 140.261 203.855 139.744 200.582C138.859 194.986 140.027 189.357 141.538 183.991L141.672 183.53C145.955 180.552 157.951 168.247 161.562 164.013C163.808 161.38 165.719 158.47 167.978 155.85C170.924 152.432 174.369 149.43 177.385 146.06C180.599 142.469 183.805 137.515 187.9 134.944C190.242 133.473 195.475 134.296 198.197 134.425C204.975 138.613 212.528 140.477 219.625 143.981C230.94 149.568 241.715 156.067 252.955 161.707C263.3 166.897 274.151 171.159 284.428 176.45C293.82 170.725 302.954 164.565 312.348 158.871C322.801 152.536 333.572 146.817 344.21 140.822C348.449 138.433 352.39 135.554 356.707 133.293C366.588 128.119 376.724 124.281 387.033 120.111C413.521 109.399 437.348 100.888 465.356 94.7148C475.33 92.5166 489.655 88.4518 499.597 88.3005Z"/><path fill="#984A97" d="M570.96 1127.71C571.702 1127.07 572.181 1126.85 573.13 1126.62L573.588 1126.14L573.401 1126.08C577.699 1125.2 591.51 1124.07 594.977 1126.6C595.48 1126.96 595.712 1127.32 596.075 1127.78C587.706 1127.65 579.331 1127.8 570.96 1127.71Z"/><path fill="#246283" d="M549.745 126.608C788.458 120.346 987.03 308.86 993.223 547.623C999.416 786.386 810.884 984.945 572.168 991.072C333.547 997.196 135.124 808.718 128.933 570.05C122.743 331.383 311.127 132.867 549.745 126.608Z"/><path fill="#FBF8EB" d="M548.556 166.732C765.956 159.022 948.414 329.102 956.017 546.549C963.62 763.996 793.486 946.409 576.079 953.908C358.82 961.402 176.597 791.376 168.999 574.077C161.401 356.779 331.305 174.436 548.556 166.732Z"/><path fill="#246283" d="M548.71 202.123C745.414 194.541 911.014 347.898 918.575 544.642C926.135 741.386 772.794 907.004 576.088 914.547C379.411 922.089 213.854 768.742 206.294 572.026C198.735 375.309 352.034 209.704 548.71 202.123Z"/><path fill="#7C2A7D" d="M551.175 224.157C735.545 218.666 889.456 363.708 894.943 548.115C900.431 732.523 755.416 886.463 571.045 891.949C386.679 897.434 232.774 752.394 227.287 567.99C221.8 383.587 366.808 229.648 551.175 224.157Z"/><path fill="#FBF8EB" d="M553.24 242.307C727.4 238.098 872.019 375.852 876.313 550.044C880.607 724.237 742.951 868.953 568.796 873.333C394.52 877.717 249.711 739.917 245.414 565.604C241.117 391.29 378.96 246.52 553.24 242.307Z"/></svg>